<svg width="10" height="13" viewBox="0 0 10 13" fill="none" xmlns="http://www.w3.org/2000/svg">
<rect width="10" height="13" fill="#E5E5E5"/>
<g clip-path="url(#clip0)">
<rect width="1366" height="3156" transform="translate(-649 -152)" fill="white"/>
<rect x="-648" y="-141" width="1366" height="768" fill="#FDFDFB"/>
<mask id="mask0" mask-type="alpha" maskUnits="userSpaceOnUse" x="-648" y="-140" width="1366" height="768">
<rect x="-648" y="-140" width="1366" height="768" fill="#FDFDFB"/>
</mask>
<g mask="url(#mask0)">
<path d="M-179 238C-179 498.678 43.0668 710 317 710V-234C43.0668 -234 -179 -22.6784 -179 238Z" fill="url(#paint0_linear)"/>
</g>
<mask id="mask1" mask-type="alpha" maskUnits="userSpaceOnUse" x="-650" y="-148" width="1366" height="768">
<rect x="-650" y="-148" width="1366" height="768" fill="#FDFDFB"/>
</mask>
<g mask="url(#mask1)">
<path d="M-181 230C-181 490.678 41.0668 702 315 702V-242C41.0668 -242 -181 -30.6784 -181 230Z" fill="url(#paint1_linear)"/>
</g>
<mask id="mask2" mask-type="alpha" maskUnits="userSpaceOnUse" x="-650" y="-148" width="1366" height="768">
<rect x="-650" y="-148" width="1366" height="768" fill="#FDFDFB"/>
</mask>
<g mask="url(#mask2)">
<path d="M-181 230C-181 490.678 41.0668 702 315 702V-242C41.0668 -242 -181 -30.6784 -181 230Z" fill="url(#paint2_linear)"/>
</g>
<path d="M2.04761 0.5H6.03571C7.72544 0.5 9.09524 1.8698 9.09524 3.55953C9.09524 5.24926 7.72544 6.61905 6.03571 6.61905H2.04761V0.5Z" stroke="#1B1A17"/>
<path d="M2 6.5H0" stroke="#1B1A17"/>
<path d="M2.00006 0V13M0.30957 9.69472H6.80958" stroke="#1B1A17"/>
</g>
<defs>
<linearGradient id="paint0_linear" x1="69" y1="-234" x2="69" y2="710" gradientUnits="userSpaceOnUse">
<stop stop-color="#EAE3D4" stop-opacity="0"/>
<stop offset="1" stop-color="#EAE3D4"/>
</linearGradient>
<linearGradient id="paint1_linear" x1="67" y1="-242" x2="67" y2="702" gradientUnits="userSpaceOnUse">
<stop stop-color="#EAE3D4" stop-opacity="0"/>
<stop offset="1" stop-color="#EAE3D4"/>
</linearGradient>
<linearGradient id="paint2_linear" x1="67" y1="-242" x2="67" y2="702" gradientUnits="userSpaceOnUse">
<stop stop-color="#EAE3D4" stop-opacity="0"/>
<stop offset="1" stop-color="#EAE3D4"/>
</linearGradient>
<clipPath id="clip0">
<rect width="1366" height="3156" fill="white" transform="translate(-649 -152)"/>
</clipPath>
</defs>
</svg>
